<svg width="24" height="24" viewBox="0 0 24 24" fill="none" xmlns="http://www.w3.org/2000/svg">
<g clip-path="url(#clip0_9_265)">
<path fill-rule="evenodd" clip-rule="evenodd" d="M1.45154 16.976C1.49026 16.7824 1.58541 16.6046 1.72501 16.465L17.1089 1.08106C18.1063 0.083657 19.7234 0.0836572 20.7208 1.08106L22.9186 3.27876C23.916 4.27617 23.916 5.89328 22.9186 6.89068L7.53463 22.2746C7.39503 22.4142 7.21723 22.5094 7.02364 22.5481L1.52938 23.6469C1.20152 23.7125 0.862585 23.6099 0.626161 23.3734C0.389738 23.137 0.287115 22.7981 0.352687 22.4702L1.45154 16.976ZM2.43212 17.1721L17.816 1.78817C18.4229 1.18129 19.4069 1.18129 20.0137 1.78817L22.2114 3.98587C22.8183 4.59275 22.8183 5.57669 22.2114 6.18357L6.82753 21.5675L1.33327 22.6663L2.43212 17.1721Z" fill="#323231"/>
<path fill-rule="evenodd" clip-rule="evenodd" d="M19.3854 9.0096L14.99 4.6142L15.6971 3.90709L20.0925 8.30249L19.3854 9.0096Z" fill="#323231"/>
</g>
<defs>
<clipPath id="clip0_9_265">
<rect width="24" height="24" fill="white"/>
</clipPath>
</defs>
</svg>
