<?xml version="1.0" encoding="UTF-8"?>
<svg version="1.1" xmlns="http://www.w3.org/2000/svg" width="500" height="500">
<path d="M0 0 C0.98143982 -0.00974854 1.96287964 -0.01949707 2.97406006 -0.02954102 C23.44961864 -0.19124655 43.36917165 -0.32388648 63.4375 4.23828125 C64.74678467 4.51913574 64.74678467 4.51913574 66.08251953 4.80566406 C108.60621283 14.02191651 149.28888231 34.20044558 181.1015625 64.0546875 C183.14259858 65.96261253 185.23107411 67.76125944 187.375 69.55078125 C197.66000973 78.5344224 206.28146744 89.3408445 214.4375 100.23828125 C214.91687012 100.87185547 215.39624023 101.50542969 215.89013672 102.15820312 C237.57619829 131.01575159 252.04511403 164.98766967 259.4375 200.23828125 C259.63504883 201.15561035 259.83259766 202.07293945 260.03613281 203.01806641 C263.26051681 218.6676748 263.83070127 234.12975246 263.875 250.05078125 C263.8811734 250.98711395 263.8873468 251.92344666 263.89370728 252.88815308 C264.15197025 313.79884053 240.08236126 376.81491907 197.16748047 420.47314453 C195.18918166 422.49164586 193.23885036 424.53580789 191.28515625 426.578125 C181.68099486 436.5106069 171.74039547 445.29612367 160.4375 453.23828125 C159.72126465 453.74552734 159.0050293 454.25277344 158.26708984 454.77539062 C129.07499369 475.28980957 95.1507273 490.97138107 59.76757812 496.84863281 C58.2060693 497.10975688 56.64732664 497.38796022 55.09179688 497.68261719 C25.5864114 503.21934206 -7.23367957 502.22800485 -36.5625 496.23828125 C-37.44728027 496.06167969 -38.33206055 495.88507813 -39.24365234 495.703125 C-82.98727324 486.65445414 -124.29997088 465.06051889 -156.5625 434.23828125 C-158.24619341 432.75478309 -159.93359201 431.27547759 -161.625 429.80078125 C-204.27376851 391.37601217 -232.26714281 331.24699056 -236.5625 274.23828125 C-236.70829287 270.74304547 -236.74924242 267.25193632 -236.765625 263.75390625 C-236.77417511 262.28857452 -236.77417511 262.28857452 -236.78289795 260.79364014 C-236.79228834 258.73304301 -236.798858 256.67243128 -236.80273438 254.61181641 C-236.81234518 251.53780045 -236.84338714 248.464482 -236.875 245.390625 C-236.97110386 227.58503783 -235.23484577 210.1626134 -230.875 192.86328125 C-230.6171875 191.82913086 -230.359375 190.79498047 -230.09375 189.72949219 C-222.98723877 161.98547028 -212.08437274 134.80835621 -195.5625 111.23828125 C-195.1180957 110.60293457 -194.67369141 109.96758789 -194.21582031 109.31298828 C-155.08635503 53.87729727 -99.10430765 16.99221018 -32.5625 3.48828125 C-31.52399902 3.2773584 -30.48549805 3.06643555 -29.41552734 2.84912109 C-28.41215332 2.6527002 -27.4087793 2.4562793 -26.375 2.25390625 C-25.05435547 1.99528809 -25.05435547 1.99528809 -23.70703125 1.73144531 C-15.81717712 0.49406136 -7.97835625 0.06597308 0 0 Z " fill="#DCE3FE" transform="translate(236.5625,-0.23828125)"/>
<path d="M0 0 C10.79262202 7.63242943 18.88292608 18.41700821 21.375 31.625 C23.08254988 47.95538615 21.7969606 62.51141713 11.70703125 76.0546875 C2.64329923 86.61032586 -8.27497215 93.7821767 -22.25 95.3125 C-32.08850513 95.87470029 -42.08011807 96.3643083 -51.25 92.3125 C-52.06339844 91.98378906 -52.87679687 91.65507812 -53.71484375 91.31640625 C-67.73163074 85.07472452 -75.57909762 73.96351644 -81.26953125 60.20703125 C-85.55194792 47.56451831 -84.21494041 32.26950338 -78.6875 20.25 C-71.6664545 7.07913363 -60.96433784 -1.34231553 -47.25 -6.6875 C-31.80490391 -11.33098805 -13.37710663 -8.2842156 0 0 Z " fill="#DCE3FD" transform="translate(216.25,70.6875)"/>
<path d="M0 0 C1.62748169 0.00858032 1.62748169 0.00858032 3.2878418 0.01733398 C20.67665442 0.399633 35.97158588 6.31408784 48.78515625 18.33984375 C60.40695718 30.7229958 66.41514101 45.76199106 66.3125 62.625 C66.30677979 63.72158936 66.30105957 64.81817871 66.29516602 65.94799805 C65.93810601 82.30423174 60.45066683 96.8107077 49.0625 108.8125 C33.43174176 123.54602438 15.31607321 128.28105673 -5.6171875 127.8828125 C-13.35614072 127.51529815 -20.07403584 125.44630895 -27.1875 122.5 C-28.59902344 121.92378906 -28.59902344 121.92378906 -30.0390625 121.3359375 C-44.21392504 114.88483907 -55.35356879 102.87034526 -61.1875 88.5 C-61.579375 87.59507812 -61.97125 86.69015625 -62.375 85.7578125 C-68.35058641 69.78141828 -66.50179207 50.93770485 -59.90234375 35.4921875 C-56.41823654 28.52397309 -51.66133932 22.99328458 -46.1875 17.5 C-45.65769531 16.94699219 -45.12789062 16.39398438 -44.58203125 15.82421875 C-40.85566807 12.27028369 -36.48224183 9.79610285 -32 7.3125 C-31.4126709 6.97911621 -30.8253418 6.64573242 -30.22021484 6.30224609 C-20.75134089 1.27024488 -10.59602931 -0.06579316 0 0 Z M-42.1875 31.5 C-51.50185721 44.61738078 -54.03095016 58.76769591 -51.7265625 74.68359375 C-48.73890489 88.19835081 -41.11371066 99.80848291 -29.8125 107.875 C-20.7972142 113.46796289 -11.43673189 115.67941578 -1 115.6875 C-0.18724609 115.69974609 0.62550781 115.71199219 1.46289062 115.72460938 C16.26594954 115.75993887 28.27845139 110.64257849 38.94140625 100.46875 C50.04006171 88.84359286 53.35615648 75.97795825 53 60.375 C52.29959082 45.89987692 46.2810869 33.55996176 35.8125 23.5 C24.64263426 14.81428421 14.18513888 12.1620365 0.25 12 C-0.80268066 11.98138916 -1.85536133 11.96277832 -2.93994141 11.94360352 C-18.65949699 12.07003755 -32.16326985 19.57462275 -42.1875 31.5 Z " fill="#050508" transform="translate(185.1875,50.5)"/>
<path d="M0 0 C7.0125 -0.0825 14.025 -0.165 21.25 -0.25 C24.53179199 -0.30462402 24.53179199 -0.30462402 27.87988281 -0.36035156 C41.43981369 -0.49227023 54.50377512 0.18831152 65 10 C71.80585956 19.2037046 73.03816091 27.83977019 72 39 C70.53493364 45.32207984 68.04394769 49.81721411 63 54 C62.278125 54.680625 61.55625 55.36125 60.8125 56.0625 C52.20023572 61.99539317 43.27930701 63.15530482 33.10546875 63.09765625 C32.26520142 63.09664917 31.42493408 63.09564209 30.5592041 63.09460449 C27.43528875 63.0893921 24.31139293 63.07543087 21.1875 63.0625 C10.6996875 63.0315625 10.6996875 63.0315625 0 63 C0 42.21 0 21.42 0 0 Z " fill="#DAE0FA" transform="translate(294,63)"/>
<path d="M0 0 C72.78259967 0 72.78259967 0 87.8046875 14.5390625 C96.9578201 24.79969158 98.94604666 35.6235787 98.20410156 48.96923828 C97.44642508 56.50793801 94.86990816 64.15611021 90 70 C89.54238281 70.55945313 89.08476562 71.11890625 88.61328125 71.6953125 C80.32510188 80.96683519 67.68615073 85.41939261 55.47375488 86.15142822 C48.54496317 86.36732603 41.61781808 86.27412217 34.6875 86.1875 C32.57878562 86.1724227 30.47006079 86.1587397 28.36132812 86.14648438 C23.2404109 86.11630215 18.12097163 86.05753901 13 86 C13 99.2 13 112.4 13 126 C8.71 126 4.42 126 0 126 C0 84.42 0 42.84 0 0 Z M13 12 C13 32.79 13 53.58 13 75 C19.826875 75.0825 26.65375 75.165 33.6875 75.25 C36.87732544 75.30462402 36.87732544 75.30462402 40.1315918 75.36035156 C54.47242818 75.50262947 66.36578308 74.40075736 77.625 64.75 C84.63978404 56.62761848 85.92410823 47.46914839 85.26513672 37.06396484 C84.37315612 30.12031475 80.65786167 23.93058844 75.3125 19.5 C70.59759433 16.41437641 65.34365973 14.68338231 60 13 C59.01 12.67 58.02 12.34 57 12 C55.54218278 11.91369074 54.08072526 11.88229019 52.62036133 11.88647461 C51.72740356 11.88659546 50.8344458 11.88671631 49.91442871 11.88684082 C48.97973755 11.89195679 48.04504639 11.89707275 47.08203125 11.90234375 C45.7891217 11.90385437 45.7891217 11.90385437 44.47009277 11.90539551 C41.25088165 11.91062678 38.03168948 11.92458805 34.8125 11.9375 C27.614375 11.958125 20.41625 11.97875 13 12 Z " fill="#040407" transform="translate(281,51)"/>
<path d="M0 0 C1.09441406 -0.01160156 2.18882812 -0.02320313 3.31640625 -0.03515625 C19.27318998 0.02149505 34.54808188 5.07372279 46.125 16.375 C45.56949305 19.97405908 44.37612752 21.37409799 41.5625 23.625 C40.92183594 24.14578125 40.28117187 24.6665625 39.62109375 25.203125 C39.12738281 25.58984375 38.63367188 25.9765625 38.125 26.375 C37.44695312 25.84390625 36.76890625 25.3128125 36.0703125 24.765625 C21.15694315 13.44633635 7.46757822 12.02600864 -10.875 13.375 C-23.20983119 15.25272271 -33.91436154 23.08063396 -41.375 32.8125 C-50.62452164 46.5040996 -52.23743783 62.90132828 -49.19140625 78.984375 C-48.27525804 81.61497485 -47.2224283 83.93958612 -45.875 86.375 C-45.43929687 87.22835937 -45.00359375 88.08171875 -44.5546875 88.9609375 C-38.32399591 100.29875335 -29.02830032 107.75857344 -17.0078125 112.5078125 C-2.54756757 116.51052369 13.681274 115.86189583 26.97265625 108.87890625 C31.68669104 106.22851007 31.68669104 106.22851007 35.65234375 102.62890625 C37.125 101.375 37.125 101.375 39.109375 101.46484375 C41.56243603 102.57252441 42.69981976 103.8435247 44.375 105.9375 C44.89578125 106.57816406 45.4165625 107.21882813 45.953125 107.87890625 C46.33984375 108.37261719 46.7265625 108.86632812 47.125 109.375 C40.7850516 115.68292846 34.30142768 119.7892482 26.125 123.375 C25.36703125 123.71789062 24.6090625 124.06078125 23.828125 124.4140625 C8.66947124 129.80283248 -10.02169798 129.44877064 -24.875 123.375 C-26.43927734 122.73884766 -26.43927734 122.73884766 -28.03515625 122.08984375 C-35.49897374 118.7023463 -41.14378305 114.18366583 -46.875 108.375 C-47.596875 107.6634375 -48.31875 106.951875 -49.0625 106.21875 C-60.72989037 94.02102371 -65.58932865 77.29452184 -65.34326172 60.66796875 C-64.57164045 43.05399626 -56.72775365 27.3280609 -43.875 15.375 C-31.06723935 4.77117219 -16.47180487 -0.17338742 0 0 Z " fill="#060609" transform="translate(196.875,293.625)"/>
<path d="M0 0 C4.62 0 9.24 0 14 0 C18.72050581 9.18164317 22.94394399 18.51130364 27.0614624 27.97460938 C28.61412719 31.54298635 30.17374594 35.10831018 31.73303223 38.67379761 C32.55391594 40.55087221 33.37446874 42.42809157 34.19470215 44.30545044 C38.89103803 55.05040616 43.63212933 65.77552428 48.375 76.5 C49.18516099 78.33275438 49.9953015 80.16551782 50.80541992 81.99829102 C52.23249559 85.22618561 53.65961462 88.45406092 55.08740234 91.68164062 C55.3979657 92.38587158 55.70852905 93.09010254 56.02850342 93.81567383 C56.72152293 95.37386836 57.42375818 96.92797765 58.13214111 98.47924805 C58.49926208 99.28724854 58.86638306 100.09524902 59.24462891 100.92773438 C59.58056061 101.66004272 59.91649231 102.39235107 60.26260376 103.14685059 C61 105 61 105 61 107 C61.66 107 62.32 107 63 107 C63.37253906 105.79085937 63.74507813 104.58171875 64.12890625 103.3359375 C66.0638319 97.54132653 68.56236237 92.02981216 71.09414673 86.47531128 C71.96284406 84.56939531 72.82620248 82.66113743 73.68823242 80.75219727 C74.58457121 78.76739776 75.48119609 76.78273419 76.37940979 74.79878235 C79.21974644 68.5246673 82.0202793 62.23316743 84.8125 55.9375 C85.28606934 54.87136475 85.75963867 53.80522949 86.24755859 52.70678711 C88.87074661 46.80095281 91.4905168 40.89361236 94.10847473 34.98545837 C95.5657694 31.69739907 97.02419082 28.40984015 98.48275757 25.12234497 C99.19652659 23.51277877 99.90977228 21.90298039 100.62246704 20.29293823 C101.62332947 18.03196005 102.62594332 15.77176579 103.62890625 13.51171875 C104.07348175 12.50561554 104.07348175 12.50561554 104.52703857 11.47918701 C106.25157612 7.59863861 108.07223997 3.78360778 110 0 C114.29 0 118.58 0 123 0 C120.69197264 7.44827811 117.67680083 14.41325374 114.4375 21.5 C113.25998259 24.09628625 112.08667258 26.69446294 110.9140625 29.29296875 C110.60223526 29.98331711 110.29040802 30.67366547 109.96913147 31.38493347 C106.39875416 39.30555632 102.92292773 47.26734923 99.44268799 55.22787476 C92.7281068 70.58344058 85.93940267 85.90391209 79.0625 101.1875 C78.67550934 102.04856354 78.28851868 102.90962708 77.88980103 103.79678345 C76.79401583 106.23373491 75.69627419 108.66979322 74.59765625 111.10546875 C74.11604034 112.17612076 74.11604034 112.17612076 73.62469482 113.2684021 C71.83572496 117.22535683 69.96954045 121.12841819 68 125 C63.71 125 59.42 125 55 125 C49.96119072 114.3116758 45.09435148 103.55544391 40.3125 92.75 C39.60276339 91.14910654 38.8928814 89.54827753 38.18286133 87.94750977 C36.76876454 84.75905634 35.3553229 81.57031382 33.94238281 78.38134766 C31.82022222 73.59285291 29.69093813 68.80754303 27.56054688 64.02270508 C25.64244881 59.71278239 23.72880605 55.4008878 21.81542969 51.08886719 C20.42959047 47.9664407 19.04169105 44.84493446 17.65332031 41.72363281 C15.4743873 36.82435425 13.29908058 31.92347684 11.12564087 27.02175903 C10.25435951 25.05826273 9.38195388 23.09526489 8.50839233 21.13278198 C7.27991459 18.37240393 6.05552295 15.61024717 4.83203125 12.84765625 C4.45970367 12.01348175 4.0873761 11.17930725 3.70376587 10.31985474 C3.36171112 9.5453598 3.01965637 8.77086487 2.66723633 7.97290039 C2.21855949 6.96254478 2.21855949 6.96254478 1.76081848 5.93177795 C1 4 1 4 0 0 Z " fill="#040508" transform="translate(253,295)"/>
<path d="M0 0 C91.74 0 183.48 0 278 0 C278 1.32 278 2.64 278 4 C186.26 4 94.52 4 0 4 C0 2.68 0 1.36 0 0 Z " fill="#0E0E15" transform="translate(111,242)"/>
<path d="M0 0 C0.66 0.33 1.32 0.66 2 1 C0.54782324 2.50596108 -0.91192861 4.00462104 -2.375 5.5 C-3.18710938 6.3353125 -3.99921875 7.170625 -4.8359375 8.03125 C-7 10 -7 10 -9 10 C-9 10.99 -9 11.98 -9 13 C-10.35546875 14.4296875 -10.35546875 14.4296875 -12.1875 15.875 C-15.32034305 18.43139993 -18.17152133 21.10253404 -21 24 C-22.43615466 25.43884409 -23.87373848 26.87626263 -25.3125 28.3125 C-26.00988281 29.00988281 -26.70726562 29.70726563 -27.42578125 30.42578125 C-28.20501953 31.20501953 -28.20501953 31.20501953 -29 32 C-29 29 -29 29 -27.71484375 27.45703125 C-27.12832031 26.91433594 -26.54179688 26.37164062 -25.9375 25.8125 C-23.46240592 23.45013298 -21.17851539 21.07435239 -19 18.4375 C-13.25880889 11.74165355 -6.49788686 5.94522184 0 0 Z " fill="#EAEEFB" transform="translate(88,58)"/>
<path d="M0 0 C0.99 0 1.98 0 3 0 C-0.12432397 2.52349243 -3.38060496 4.27256146 -7 6 C-6.67 4.68 -6.34 3.36 -6 2 C-6.66 2 -7.32 2 -8 2 C-8 1.34 -8 0.68 -8 0 C-4.90281114 -0.99552499 -3.09728725 -0.89921243 0 0 Z " fill="#D1D6EC" transform="translate(152,57)"/>
<path d="M0 0 C5.47932789 1.54545146 10.11429181 4.15543212 15 7 C13 8 13 8 10.72265625 7.36328125 C9.84480469 7.01652344 8.96695312 6.66976563 8.0625 6.3125 C7.18722656 5.97863281 6.31195313 5.64476562 5.41015625 5.30078125 C2.77072867 3.87626037 1.59766491 2.50459021 0 0 Z " fill="#EAEDFA" transform="translate(357,24)"/>
<path d="M0 0 C0.99 0 1.98 0 3 0 C3 0.66 3 1.32 3 2 C4.32 2 5.64 2 7 2 C7.33 3.32 7.66 4.64 8 6 C4.00095031 6 2.19799578 4.27413033 -1 2 C-0.67 1.34 -0.34 0.68 0 0 Z " fill="#D0D7E9" transform="translate(223,59)"/>
<path d="M0 0 C0 3.69349436 -0.88153908 5.00493457 -3 8 C-5.6875 10.3125 -5.6875 10.3125 -8 12 C-6.59023295 8.96147295 -4.91129772 6.4060405 -2.875 3.75 C-2.06675781 2.69039063 -2.06675781 2.69039063 -1.2421875 1.609375 C-0.83226562 1.07828125 -0.42234375 0.5471875 0 0 Z " fill="#EBEEFB" transform="translate(53,95)"/>
<path d="M0 0 C0.66 0.33 1.32 0.66 2 1 C-1.45856848 3.94995547 -4.80021485 6.22675738 -9 8 C-9.66 7.67 -10.32 7.34 -11 7 C-9.21475351 5.80286983 -7.4215972 4.61752721 -5.625 3.4375 C-4.62726563 2.77621094 -3.62953125 2.11492188 -2.6015625 1.43359375 C-1.74304688 0.96050781 -0.88453125 0.48742187 0 0 Z " fill="#EBEEFB" transform="translate(127,31)"/>
<path d="M0 0 C0.66 0 1.32 0 2 0 C2.33 0.99 2.66 1.98 3 3 C0.03 5.475 0.03 5.475 -3 8 C-1.125 2.25 -1.125 2.25 0 0 Z " fill="#C6CBE0" transform="translate(353,347)"/>
<path d="M0 0 C0.99 0.66 1.98 1.32 3 2 C3.66 1.34 4.32 0.68 5 0 C4.67 1.32 4.34 2.64 4 4 C2.125 4.625 2.125 4.625 0 5 C-0.66 4.34 -1.32 3.68 -2 3 C-1.34 2.01 -0.68 1.02 0 0 Z " fill="#D7DDF5" transform="translate(144,81)"/>
<path d="M0 0 C0.33 0.66 0.66 1.32 1 2 C-1.31 2.33 -3.62 2.66 -6 3 C-6.33 2.34 -6.66 1.68 -7 1 C-4.53721199 -0.231394 -2.7204945 -0.07159196 0 0 Z " fill="#CFD4E8" transform="translate(202,162)"/>
</svg>
