<svg width="24" height="24" viewBox="0 0 24 24" fill="none" xmlns="http://www.w3.org/2000/svg">
<path fill-rule="evenodd" clip-rule="evenodd" d="M21 6H3C2.44772 6 2 6.44772 2 7V17C2 17.5523 2.44772 18 3 18H21C21.5523 18 22 17.5523 22 17V7C22 6.44771 21.5523 6 21 6ZM3 5C1.89543 5 1 5.89543 1 7V17C1 18.1046 1.89543 19 3 19H21C22.1046 19 23 18.1046 23 17V7C23 5.89543 22.1046 5 21 5H3Z" fill="#323231"/>
<path fill-rule="evenodd" clip-rule="evenodd" d="M10.5043 12.9072L1.70086 6.33397L2.29914 5.53269L11.1026 12.1059C11.6349 12.5034 12.3651 12.5034 12.8974 12.1059L21.7009 5.53269L22.2991 6.33397L13.4957 12.9072C12.6086 13.5696 11.3914 13.5696 10.5043 12.9072Z" fill="#323231"/>
</svg>
