<svg width="24" height="24" viewBox="0 0 24 24" fill="none" xmlns="http://www.w3.org/2000/svg">
<path fill-rule="evenodd" clip-rule="evenodd" d="M18.8209 14.0869C19.5588 12.6625 20 11.255 20 9.96296C20 5.56902 16.4222 2 12 2C7.57783 2 4 5.56902 4 9.96296C4 11.255 4.44118 12.6625 5.1791 14.0869C5.91345 15.5043 6.91202 16.8813 7.9523 18.0944C8.99118 19.3059 10.0533 20.3327 10.8966 21.0503C11.3196 21.4102 11.6754 21.682 11.9366 21.8577C11.9589 21.8727 11.98 21.8867 12 21.8997C12.02 21.8867 12.0411 21.8727 12.0634 21.8577C12.3246 21.682 12.6804 21.4102 13.1034 21.0503C13.9467 20.3327 15.0088 19.3059 16.0477 18.0944C17.088 16.8813 18.0866 15.5043 18.8209 14.0869ZM11.7463 22.0445C11.7463 22.0445 11.754 22.0405 11.7677 22.0357C11.7529 22.0427 11.7463 22.0445 11.7463 22.0445ZM12.2323 22.0357C12.246 22.0405 12.2537 22.0445 12.2537 22.0445C12.2537 22.0445 12.2471 22.0427 12.2323 22.0357ZM12 23C12.8182 23 21 16 21 9.96296C21 5.01286 16.9706 1 12 1C7.02944 1 3 5.01286 3 9.96296C3 16 11.1818 23 12 23Z" fill="#323231"/>
<path d="M14.0455 10.3704C14.0455 11.4954 13.1297 12.4074 12 12.4074C10.8704 12.4074 9.95459 11.4954 9.95459 10.3704C9.95459 9.24535 10.8704 8.33334 12 8.33334C13.1297 8.33334 14.0455 9.24535 14.0455 10.3704Z" fill="#323231"/>
</svg>
